<?xml version="1.0" encoding="UTF-8"?>
<svg xmlns="http://www.w3.org/2000/svg" xmlns:xlink="http://www.w3.org/1999/xlink" width="12pt" height="13pt" viewBox="0 0 12 13" version="1.1">
<g id="surface1">
<path style=" stroke:none;fill-rule:nonzero;fill:rgb(0%,0%,0%);fill-opacity:1;" d="M 10.125 12.59375 L 1.875 12.59375 C 1.460938 12.59375 1.125 12.230469 1.125 11.78125 L 1.125 2.84375 C 1.125 2.394531 1.460938 2.03125 1.875 2.03125 L 2.625 2.03125 L 2.625 2.4375 C 2.625 3.109375 3.128906 3.65625 3.75 3.65625 C 4.371094 3.65625 4.875 3.109375 4.875 2.4375 L 4.875 2.03125 L 7.125 2.03125 L 7.125 2.4375 C 7.125 3.109375 7.628906 3.65625 8.25 3.65625 C 8.871094 3.65625 9.375 3.109375 9.375 2.4375 L 9.375 2.03125 L 10.125 2.03125 C 10.539062 2.03125 10.875 2.394531 10.875 2.84375 L 10.875 11.78125 C 10.875 12.230469 10.539062 12.59375 10.125 12.59375 Z M 10.125 4.875 L 1.875 4.875 L 1.875 11.78125 L 10.125 11.78125 Z M 3.75 6.90625 L 2.625 6.90625 L 2.625 5.6875 L 3.75 5.6875 Z M 3.75 8.9375 L 2.625 8.9375 L 2.625 7.71875 L 3.75 7.71875 Z M 3.75 10.96875 L 2.625 10.96875 L 2.625 9.75 L 3.75 9.75 Z M 5.625 6.90625 L 4.5 6.90625 L 4.5 5.6875 L 5.625 5.6875 Z M 5.625 8.9375 L 4.5 8.9375 L 4.5 7.71875 L 5.625 7.71875 Z M 5.625 10.96875 L 4.5 10.96875 L 4.5 9.75 L 5.625 9.75 Z M 7.5 6.90625 L 6.375 6.90625 L 6.375 5.6875 L 7.5 5.6875 Z M 7.5 8.9375 L 6.375 8.9375 L 6.375 7.71875 L 7.5 7.71875 Z M 7.5 10.96875 L 6.375 10.96875 L 6.375 9.75 L 7.5 9.75 Z M 9.375 6.90625 L 8.25 6.90625 L 8.25 5.6875 L 9.375 5.6875 Z M 9.375 8.9375 L 8.25 8.9375 L 8.25 7.71875 L 9.375 7.71875 Z M 9.375 10.96875 L 8.25 10.96875 L 8.25 9.75 L 9.375 9.75 Z M 8.238281 3.25 C 7.832031 3.25 7.5 2.890625 7.5 2.449219 L 7.5 1.613281 C 7.5 1.171875 7.832031 0.8125 8.238281 0.8125 C 8.644531 0.8125 8.976562 1.171875 8.976562 1.613281 L 8.976562 2.449219 C 8.976562 2.890625 8.644531 3.25 8.238281 3.25 Z M 3.738281 3.25 C 3.332031 3.25 3 2.890625 3 2.449219 L 3 1.613281 C 3 1.171875 3.332031 0.8125 3.738281 0.8125 C 4.144531 0.8125 4.476562 1.171875 4.476562 1.613281 L 4.476562 2.449219 C 4.476562 2.890625 4.144531 3.25 3.738281 3.25 Z M 3.738281 3.25 "/>
</g>
</svg>
