<?xml version="1.0" encoding="UTF-8"?>
<svg xmlns="http://www.w3.org/2000/svg" xmlns:xlink="http://www.w3.org/1999/xlink" width="12pt" height="13pt" viewBox="0 0 12 13" version="1.1">
<g id="surface1">
<path fill="#fff" d="M 9.144531 5.527344 L 9.140625 5.527344 C 9.261719 5.152344 9.332031 4.753906 9.332031 4.332031 C 9.332031 2.339844 7.839844 0.722656 6 0.722656 C 4.15625 0.722656 2.664062 2.339844 2.664062 4.332031 C 2.664062 4.753906 2.734375 5.152344 2.855469 5.527344 C 1.558594 6.242188 0.664062 7.703125 0.664062 9.386719 L 0.664062 11.554688 C 0.664062 11.953125 0.964844 12.277344 1.332031 12.277344 L 10.664062 12.277344 C 11.035156 12.277344 11.332031 11.953125 11.332031 11.554688 L 11.332031 9.386719 C 11.332031 7.699219 10.441406 6.242188 9.140625 5.527344 Z M 6 2.167969 C 7.101562 2.167969 8 3.140625 8 4.332031 C 8 5.527344 7.101562 6.5 6 6.5 C 4.898438 6.5 4 5.527344 4 4.332031 C 4 3.140625 4.898438 2.167969 6 2.167969 Z M 10 10.832031 L 2 10.832031 L 2 9.386719 C 2 8.230469 2.632812 7.230469 3.546875 6.769531 C 4.15625 7.492188 5.027344 7.945312 6 7.945312 C 6.972656 7.945312 7.84375 7.492188 8.453125 6.769531 C 9.367188 7.230469 10 8.230469 10 9.386719 Z M 10 10.832031 "/>
</g>
</svg>
